<svg xmlns="http://www.w3.org/2000/svg" viewBox="0 0 224.896 218.281"><path d="M185.208 0v6.615h6.615V0h-6.615zm6.615 6.615v6.614h6.614V6.615h-6.614zm6.614 6.614v6.615h6.615v-6.615h-6.614zm6.615 6.615v6.614h6.615v-6.614h-6.615zm6.615 6.614v6.615h6.614v-6.615h-6.614zm6.614 6.615v13.23h6.615v-13.23h-6.615zm0 13.23h-6.614v6.614h6.614v-6.615zm-6.614 6.614h-6.615v6.614h6.615v-6.614zm-6.615 6.614h-6.614v6.615h6.614V59.53zm-6.614 6.615h-13.23v6.614h13.23v-6.614zm-13.23 0V59.53h-6.614v6.615h6.614zm-6.614 0h-6.615v6.614h6.615v-6.614zm-6.615 6.614h-6.614v6.615h6.614V72.76zm-6.614 6.615h-6.615v6.615h6.615v-6.615zm-6.615 6.615h-6.615v6.614h6.615V85.99zm-6.615 6.614h-6.614v6.615h6.614v-6.615zm-6.614 6.615h-6.615v6.614h6.615V99.22zm-6.615 6.614h-6.614v6.615h6.614v-6.615zm-6.614 6.615h-6.615v6.615h6.615v-6.615zm-6.615 6.615h-6.615v6.614h6.615v-6.615zm-6.615 6.614h-6.614v6.615h6.615v-6.615zm-6.614 6.615h-6.615v6.614h6.615v-6.614zm-6.615 6.614H99.22v6.615h6.614v-6.615zm-6.614 6.615h-6.615v6.614h6.615v-6.614zm-6.615 6.614H85.99v6.615h6.614v-6.615zm-6.614 6.615h-6.615v6.615h6.615v-6.615zm-6.615 6.615H72.76v6.614h6.615v-6.614zm-6.615 6.614h-6.614v6.615h6.614v-6.615zm-6.614 6.615H59.53v6.614h6.615v-6.614zm-6.615 6.614h-6.614v6.615h6.614v-6.615zm-6.614 6.615h-6.615v6.614h6.615v-6.614zm-6.615 6.614h-13.23v6.615h13.23v-6.614zm-13.23 6.615H13.23v6.615H6.615v-6.615h6.614v-19.844H6.615v13.23H0v19.843h19.844v-6.614h13.229v-6.615zM13.23 185.208h6.615V171.98h-6.615v13.23zm6.615-13.229h6.614v-6.614h-6.614v6.614zm6.614-6.614h6.615v-6.615h-6.615v6.615zm6.615-6.615h6.614v-6.615h-6.614v6.615zm6.614-6.615h6.615v-6.614h-6.614v6.614zm6.615-6.614h6.615v-6.615h-6.615v6.615zm6.615-6.615h6.614v-6.614h-6.614v6.614zm6.614-6.614h6.615v-6.615H59.53v6.615zm6.615-6.615h6.614v-6.615h-6.614v6.615zm6.614-6.615h6.615v-6.614H72.76v6.615zm6.615-6.614h6.615v-6.615h-6.615v6.615zm6.615-6.615h6.614V99.22H85.99v6.614zm6.614-6.614h6.615v-6.615h-6.615v6.615zm6.615-6.615h6.614V85.99H99.22v6.614zm6.614-6.614h6.615v-6.615h-6.615v6.615zm6.615-6.615h6.615V72.76h-6.615v6.615zm6.615-6.615h6.614v-6.614h-6.615v6.614zm6.614-6.614h6.615V59.53h-6.615v6.615zm6.615-6.615h6.614v-6.614h-6.614v6.614zm6.614-6.614h6.615v-6.615h-6.615v6.615zm6.615-6.615h6.614v-6.614h-6.614v6.614zm6.614-6.614h6.615v-6.615h-6.615v6.614zm6.615-6.615h6.615v-6.615h-6.615v6.615zm6.615-6.615h6.614v-6.614h-6.614v6.614zm6.614-6.614h6.615v-6.615h-6.615v6.615zm6.615-6.615h6.614V6.615h-6.614v6.614zM19.844 185.21v6.614h6.614v-6.615h-6.614zm6.614 6.614v6.614h6.615v-6.614h-6.615zm165.365-158.75v6.614h-6.615v13.23h13.23v-6.615h6.614v-13.23h-13.23z" style="fill:#404040"/><path d="M39.688 198.438h6.614v-6.615h6.615v-6.615h6.614v-6.614h6.615v-6.615h6.614v-6.614h6.615v-6.615h6.615v-6.615h6.614v-6.614h6.615v-6.615h6.614v-6.614h6.615v-6.615h6.614v-6.614h6.615v-6.615h6.615v-6.615h6.614V99.22h6.615v-6.615h6.614V85.99h6.615v-6.615h6.615V72.76h6.614v-6.614h6.615V59.53h6.614v6.615h13.23V59.53h6.614v-6.614h6.615v-6.615h6.614v-13.23h-13.229v13.23h-6.615v6.615h-19.843v6.614h-6.615v6.615h-6.614v6.614h-6.615v6.615h-6.615v6.615h-6.614v6.614h-6.615v6.615h-6.614v6.614h-6.615v6.615h-6.614v6.614h-6.615v6.615h-6.615v6.615H99.22v6.614h-6.615v6.615H85.99v6.614h-6.615v6.615H72.76v6.615h-6.614v6.614H59.53v6.615h-6.614v6.614h-6.615v6.615h-6.614Z" style="fill:#adadad"/><path d="M33.073 191.823v6.614h6.614v-6.614h6.615v-6.615h6.615v-6.614h6.614v-6.615h6.615v-6.614h6.614v-6.615h6.615v-6.615h6.615v-6.614h6.614v-6.615h6.615v-6.614h6.614v-6.615h6.615v-6.614h6.614v-6.615h6.615v-6.615h6.615V99.22h6.614v-6.615h6.615V85.99h6.614v-6.615h6.615V72.76h6.615v-6.614h6.614V59.53h6.615v-6.614h6.614v-13.23h6.615v-6.614h19.844v-6.615h-19.844v6.615h-6.615v6.614h-6.614v13.23h-6.615v6.614h-6.614v6.615h-6.615v6.614h-6.615v6.615h-6.614v6.615h-6.615v6.614h-6.614v6.615h-6.615v6.614h-6.614v6.615h-6.615v6.614h-6.615v6.615H99.22v6.615h-6.615v6.614H85.99v6.615h-6.615v6.614H72.76v6.615h-6.614v6.615H59.53v6.614h-6.614v6.615h-6.615v6.614h-6.614v6.615z" style="fill:#dcdcdc"/><path d="M185.208 6.615v6.614h-6.614v6.615h-6.615v6.614h-6.614v6.615h-6.615v6.614h-6.615v6.615h-6.614v6.615h-6.615v6.614h-6.614v6.615h-6.615v6.614h-6.615v6.615h-6.614v6.615h-6.615v6.614H99.22v6.615h-6.615v6.614H85.99v6.615h-6.615v6.615H72.76v6.614h-6.614v6.615H59.53v6.614h-6.614v6.615h-6.615v6.614h-6.614v6.615h-6.615v6.615h-6.615v6.614h-6.614v13.23h6.614v6.614h13.23v-6.615h6.614v-6.614h6.615v-6.615h6.614v-6.614h6.615v-6.615h6.614v-6.615h6.615v-6.614h6.615v-6.615h6.614v-6.614h6.615v-6.615h6.614v-6.615h6.615v-6.614h6.615v-6.615h6.614V99.22h6.615v-6.615h6.614V85.99h6.615v-6.615h6.614V72.76h6.615v-6.614h6.615V59.53h6.614v-6.614h6.615v-13.23h6.614v-6.614h6.615v-6.615h13.23v-6.614h-6.615v-6.615h-6.615V6.615h-6.615zM26.458 191.823h-6.614v-6.615h-6.615v19.844h19.844v-6.614h-6.615v-6.615zm-13.229 13.23H6.615v6.614h6.614v-6.615z" style="fill:#f8f8f8"/><path d="M52.917 198.438v-6.615h6.614v-6.615h6.615v-6.614h6.614v-6.615h6.615v-6.614h6.615v-6.615h6.614v-6.615h6.615v-6.614h6.614v-6.615h6.615v-6.614h6.614v-6.615h6.615v-6.614h6.615v-6.615h6.614v-6.615h6.615V99.22h6.614v-6.615h6.615V85.99h6.615v-6.615h6.614V72.76h6.615v-6.614h6.614v6.614h-6.614v6.615h-6.615v6.615h-6.614v6.614h-6.615v6.615h-6.615v6.614h-6.614v6.615h-6.615v6.615h-6.614v6.614h-6.615v6.615h-6.614v6.614h-6.615v6.615h-6.615v6.614H99.22v6.615h-6.615v6.615H85.99v6.614h-6.615v6.615H72.76v6.614h-6.614v6.615H59.53v6.614z" style="fill:#303030"/></svg>