<svg xmlns="http://www.w3.org/2000/svg" viewBox="0 0 72.76 72.76"><path d="M39.688 0v6.615h13.229V0H39.688zm13.229 6.615v6.614h6.614V6.615h-6.614zm6.614 6.614v6.615h6.615v-6.615H59.53zm6.615 6.615v13.229h6.614V19.844h-6.614zm0 13.229H59.53v6.614h6.615v-6.614zm-6.615 6.614h-6.614v6.615h6.614v-6.614zm-6.614 6.615h-6.615v6.615h6.615v-6.615zm-6.615 6.615h-6.614v6.614h6.614v-6.614zm-6.614 6.614h-6.615v6.615h6.614V59.53zm-6.615 6.615H6.615V39.688H0V72.76h33.073v-6.614zM6.615 39.687h6.614v-6.614H6.615v6.614zm6.614-6.614h6.615v-6.615h-6.615v6.615zm6.615-6.615h6.614v-6.614h-6.614v6.614zm6.614-6.614h6.615v-6.615h-6.615v6.615zm6.615-6.615h6.614V6.615h-6.614v6.614zM13.229 39.688v6.614h6.615v-6.614h-6.615zm6.615 6.614v6.615h6.614v-6.615h-6.614zm6.614 6.615v6.614h6.615v-6.614h-6.615z" style="fill:#785820"/><path d="M39.688 6.615v6.614h-6.615v6.615h-6.615v6.614h-6.614v6.615h-6.615v6.614h6.615v6.615h6.614v6.615h6.615v6.614h6.614v-6.614h6.615v-6.615h6.615v-6.614h6.614v-6.615h6.615V19.844H59.53v-6.615h-6.614V6.615H39.688zM33.072 59.53h-6.615v-6.614h-6.614v-6.615h-6.615v-6.614H6.615v26.458h26.458V59.53z" style="fill:#f8b830"/></svg>