<svg xmlns="http://www.w3.org/2000/svg" viewBox="0 0 92.604 92.604"><path d="M26.458 0v6.615h39.688V0H26.458zm39.688 6.615v6.614h6.614v6.615h6.615v6.614h6.615V13.23h-6.615V6.615h-13.23zM85.99 26.458v39.688h6.614V26.458H85.99zm0 39.688h-6.615v6.614H72.76v6.615h-6.614v6.615h13.229v-6.615h6.615v-13.23zM66.146 85.99H26.458v6.614h39.688V85.99zm-39.688 0v-6.615h-6.614V72.76h-6.615v-6.614H6.615v13.229h6.614v6.615h13.23zM6.615 66.146V26.458H0v39.688h6.615zm0-39.688h6.614v-6.614h6.615v-6.615h6.614V6.615H13.23v6.614H6.615v13.23zm19.843-6.614v6.614h-6.614v6.615h6.614v6.614h39.688v-6.614h6.614v-6.615h-6.614v-6.614H59.53v6.614h-6.614v6.615h-13.23v-6.615h-6.614v-6.614h-6.615z" style="fill:#f8f8f8"/><path d="M33.073 39.688H59.53v13.229H33.073Z" style="fill:#c8c8c8"/><path d="M26.458 6.615v6.614h6.615V6.615h-6.615zm33.073 0v6.614h6.615V6.615H59.53zM6.615 26.458v6.615h6.614v-6.615H6.615zm72.76 0v6.615h6.615v-6.615h-6.615zM26.458 52.917v6.614h-6.614v6.615h6.614v6.614h6.615v-6.614h6.614V59.53h13.23v6.615h6.614v6.614h6.615v-6.614h6.614V59.53h-6.614v-6.614H26.458zM6.615 59.53v6.615h6.614V59.53H6.615zm72.76 0v6.615h6.615V59.53h-6.615zM26.458 79.375v6.615h6.615v-6.615h-6.615zm33.073 0v6.615h6.615v-6.615H59.53z" style="fill:#a8a8a8"/><path d="M19.844 19.844v6.614h6.614v-6.614h-6.614zm46.302 0v6.614h6.614v-6.614h-6.614zM19.844 66.146v6.614h6.614v-6.614h-6.614zm46.302 0v6.614h6.614v-6.614h-6.614z" style="fill:gray"/><path d="M33.073 6.615H59.53v6.614h13.23v6.615h6.614v13.229h6.615V59.53h-6.615v13.23H72.76v6.614H59.531v6.615H33.073v-6.615h-13.23V72.76H13.23V59.531H6.615V33.073h6.614v-13.23h6.615v13.23h6.614v6.614h6.615v13.23h-6.615v6.614h-6.614v13.23h13.229v-6.615h6.614V59.53h13.23v6.615h6.614v6.614h13.23V59.531h-6.615v-6.614H59.53v-13.23h6.615v-6.614h6.614v-13.23H59.531v6.615h-6.614v6.615h-13.23v-6.615h-6.614v-6.614h-13.23v-6.615h13.23z" style="fill:#404040"/></svg>