<svg xmlns="http://www.w3.org/2000/svg" viewBox="0 0 52.917 66.146"><path d="M6.615 26.458V13.23h6.614V6.615h26.459v6.614h6.614v19.844h-6.614v6.614h-6.615v6.615h13.23v13.23H6.614v-13.23h6.614v-6.614h6.615v-6.615h6.614v-6.615h6.615v-6.614h-13.23v6.614H6.616" style="fill:#404040"/><path d="M6.615 0v6.615h6.614V0H6.615zm0 6.615H0v6.614h6.615V6.615zM39.687 0v6.615h6.615V0h-6.614zm6.615 6.615v6.614h6.615V6.615h-6.615zM0 26.458v6.615h6.615v-6.615H0zm6.615 6.615v6.614h6.614v-6.614H6.615zm0 6.614H0v6.615h6.615v-6.614zm39.687-6.614v13.23h6.615v-13.23h-6.615zM0 59.53v6.615h6.615V59.53H0zm46.302 0v6.615h6.615V59.53h-6.615z" style="fill:#a0b0a8"/><path d="M13.23 0v6.615h26.457V0H13.23zm26.457 6.615v6.614h6.615V6.615h-6.614zm6.615 6.614v19.844h6.615V13.229h-6.615zm0 19.844h-6.614v6.614h-6.615v6.615h13.23v-13.23zm0 13.23V59.53h6.615V46.302h-6.615zm0 13.228H6.615v6.615h39.687V59.53zm-39.687 0V46.302H0v13.23h6.615zm0-13.229h6.614v-6.614H6.615v6.614zm6.614-6.614h6.615v-6.615h6.614v-6.615h6.615v-6.614h-13.23v6.614H6.616v6.615h6.614v6.614zm-6.614-13.23V13.23H0v13.23h6.615zm0-13.229h6.614V6.615H6.615v6.614z" style="fill:#f8f8f8"/></svg>