<svg xmlns="http://www.w3.org/2000/svg" viewBox="0 0 52.917 66.146"><path d="M13.23 59.531h26.457V46.302h-6.614V6.615h-13.23v6.614H13.23v13.23h6.615v19.843h-6.615v13.23" style="fill:#404040"/><path d="M13.23 0v6.615h6.614V0h-6.615zm0 6.615H6.614v6.614h6.614V6.615zM33.072 0v6.615h6.614V0h-6.614zM6.615 26.458v6.615h6.614v-6.615H6.615zm0 13.23v6.614h6.614v-6.614H6.615zm33.072 0v6.614h6.615v-6.614h-6.614zM6.615 59.53v6.615h6.614V59.53H6.615zm33.072 0v6.615h6.615V59.53h-6.614z" style="fill:#a0b0a8"/><path d="M19.844 0v6.615h13.229V0h-13.23zm13.229 6.615v39.687h6.614V6.615h-6.614zm6.614 39.687v13.23h6.615v-13.23h-6.614zm0 13.23H13.23v6.614h26.459V59.53zm-26.458 0v-13.23H6.615v13.23h6.614zm0-13.23h6.615V26.458h-6.615v19.844zm0-19.844V13.23H6.615v13.23h6.614zm0-13.229h6.615V6.615h-6.615v6.614z" style="fill:#f8f8f8"/></svg>