<svg xmlns="http://www.w3.org/2000/svg" viewBox="0 0 92.604 92.604"><path d="M26.458 0h39.688v6.615h13.229v6.614h6.615v13.23h6.614v39.687H85.99v13.229h-6.615v6.615h-13.23v6.614H26.459V85.99H13.23v-6.615H6.615v-13.23H0V26.459h6.615V13.23h6.614V6.615h13.23z" style="fill:#f8b830"/><path d="M13.23 33.073v19.844h13.228v-13.23h-6.614v-6.614h-6.615zm0 19.844H6.614v13.229h6.614v6.614h6.615v6.615h13.229v6.615H59.53v-6.615h13.23V72.76h6.614v-6.614h6.615v-13.23h-6.615v6.615h-13.23v6.615H26.459V59.53H13.23v-6.614zm66.145 0V33.073H72.76v6.614h-6.614v13.23h13.229zm-46.302-6.615v6.615h6.614v-6.615h-6.614zm19.844 0v6.615h6.614v-6.615h-6.614z" style="fill:#f8f8f8"/></svg>