<svg xmlns="http://www.w3.org/2000/svg" viewBox="0 0 52.917 66.146"><path d="M6.615 26.458V13.23h6.614V6.615h26.459v6.614h6.614v39.688h-6.614v6.614H13.229v-6.614H6.615v-13.23h13.229v6.615h13.229v-6.614h-13.23v-13.23h13.23v-6.614h-13.23v6.614z" style="fill:#404040"/><path d="M6.615 0v6.615h6.614V0H6.615zm0 6.615H0v6.614h6.615V6.615zM39.687 0v6.615h6.615V0h-6.614zm6.615 6.615v6.614h6.615V6.615h-6.615zM0 26.458v13.23h6.615v-13.23H0zm0 26.459v6.614h6.615v-6.614H0zm6.615 6.614v6.615h6.614V59.53H6.615zm39.687-6.614v6.614h6.615v-6.614h-6.615zm0 6.614h-6.614v6.615h6.614V59.53z" style="fill:#a0b0a8"/><path d="M13.23 0v6.615h26.457V0H13.23zm26.457 6.615v6.614h6.615V6.615h-6.614zm6.615 6.614v39.688h6.615V13.229h-6.615zm0 39.688h-6.614v6.614h6.614v-6.614zm-6.614 6.614H13.229v6.615h26.459V59.53zm-26.459 0v-6.614H6.615v6.614h6.614zm-6.614-6.614v-13.23H0v13.23h6.615zm0-13.23h13.229V26.459H6.614v13.23zm0-13.229V13.23H0v13.23h6.615zm0-13.229h6.614V6.615H6.615v6.614zm13.229 13.23h13.229v-6.615h-13.23v6.614zm0 13.229v6.614h13.229v-6.614h-13.23z" style="fill:#f8f8f8"/></svg>