<svg xmlns="http://www.w3.org/2000/svg" viewBox="0 0 105.833 105.833"><path d="M33.073 6.615v6.614H72.76V6.615H33.073zm39.687 6.614v6.615h6.615v6.614h6.615v6.615h6.614v-13.23H85.99V13.23H72.76zm19.844 19.844V72.76h6.615V33.073h-6.615zm0 39.687H85.99v6.615h-6.615v6.615H72.76v6.614h13.23V85.99h6.614V72.76zM72.76 92.604H33.073v6.615H72.76v-6.615zm-39.687 0V85.99h-6.615v-6.615h-6.614V72.76h-6.615v13.23h6.615v6.614h13.229zM13.229 72.76V33.073H6.615V72.76h6.614zm0-39.687h6.615v-6.615h6.614v-6.614h6.615v-6.615h-13.23v6.615H13.23v13.229zm6.615 0v6.614h6.614v-6.614h-6.614zm6.614 6.614v6.615h6.615v-6.614h-6.615zm6.615 6.615v13.23h6.614v-6.615h6.615v-13.23h-6.614v6.615h-6.615zm52.917-13.23h-6.615v6.615h6.615v-6.614zm-6.615 6.615H72.76v6.615h6.615v-6.614zm-6.615 6.615h-6.614v-6.614H59.53v13.229h6.615v6.614h6.614V46.302z" style="fill:#404040"/><path d="M19.844 39.688V59.53h13.229V46.302h-6.615v-6.614h-6.614zm0 19.843h-6.615v6.615h6.615V59.53zm0 6.615v13.229h6.614v6.615h13.23v6.614h26.458V85.99h13.229v-6.615h6.615v-13.23H72.76v6.615H33.073v-6.614h-13.23zm66.146 0h6.614V59.53H85.99v6.615zm0-6.615V39.688h-6.615v6.614H72.76v13.23h13.23zm-46.302-6.614v6.614h6.614v-6.614h-6.614zm19.843 0v6.614h6.615v-6.614H59.53z" style="fill:#d0e8e0"/><path d="M39.688 13.23h26.458v6.614h13.229v6.614h6.615v6.615h-6.615v6.614H72.76v6.615h-6.614v-6.614H59.53V59.53H85.99V39.688h6.614V59.53H85.99v6.615H72.76v6.614H33.073v-6.614h-13.23V59.53H13.23V39.688h6.615V59.53h26.458V39.688h-6.614v6.614h-6.615v-6.614h-6.615v-6.615h-6.614v-6.615h6.614v-6.614h13.23Z" style="fill:#e07050"/><path d="M33.073 13.23v6.614h6.614v-6.615h-6.614zm33.073 0v6.614h6.614v-6.615h-6.614zM13.229 33.072v6.614h6.615v-6.614h-6.615zm72.76 0v6.614h6.615v-6.614H85.99z" style="fill:#a05850"/><path d="M13.23 66.146v6.614h6.614v-6.614h-6.615zm72.76 0v6.614h6.614v-6.614H85.99zM33.073 85.99v6.614h6.614V85.99h-6.614zm33.073 0v6.614h6.614V85.99h-6.614z" style="fill:#28a068"/></svg>